<?xml version="1.0" standalone="no"?>
<!DOCTYPE svg PUBLIC "-//W3C//DTD SVG 20010904//EN"
 "http://www.w3.org/TR/2001/REC-SVG-20010904/DTD/svg10.dtd">
<svg version="1.0" xmlns="http://www.w3.org/2000/svg"
 width="520.000000pt" height="520.000000pt" viewBox="0 0 520.000000 520.000000"
 preserveAspectRatio="xMidYMid meet">
<metadata>
Created by potrace 1.11, written by Peter Selinger 2001-2013
</metadata>
<g transform="translate(0.000000,520.000000) scale(0.100000,-0.100000)"
fill="#000000" stroke="none">
<path d="M923 3885 c-250 -45 -441 -177 -557 -383 -34 -61 -83 -180 -75 -185
10 -6 266 -87 276 -87 5 0 20 28 33 63 62 173 194 293 360 326 145 30 326 10
430 -46 93 -50 157 -140 185 -260 14 -61 20 -253 8 -254 -4 0 -181 -2 -393 -4
-212 -2 -396 -6 -410 -9 -14 -3 -38 -9 -55 -12 -154 -27 -308 -109 -388 -207
-85 -104 -119 -218 -113 -379 6 -154 48 -257 144 -356 142 -146 344 -215 612
-207 152 4 244 25 345 78 68 36 175 138 220 209 21 34 37 48 53 48 12 0 22 -3
23 -7 8 -122 39 -182 125 -235 54 -34 116 -44 284 -43 l145 0 3 130 3 130
-103 2 c-119 1 -154 12 -170 50 -8 20 -12 176 -13 518 -1 270 -5 513 -9 540
-28 208 -125 367 -284 471 -80 53 -156 82 -287 109 -62 13 -320 13 -392 0z
m676 -1147 c-8 -292 -147 -486 -405 -568 -89 -28 -281 -36 -364 -14 -190 50
-292 167 -286 329 2 39 6 80 9 92 17 66 73 127 153 167 99 49 141 54 532 55
l363 1 -2 -62z"/>
<path d="M3938 3895 c-1 -1 -25 -6 -53 -10 -80 -10 -195 -53 -265 -98 -79 -51
-178 -148 -215 -211 -22 -38 -32 -46 -56 -46 l-29 0 0 158 0 158 -147 -1 -148
0 -3 -1352 -2 -1353 155 0 155 0 0 545 0 545 24 0 c18 0 35 -16 70 -64 85
-120 206 -206 353 -254 86 -28 149 -36 293 -37 114 0 144 3 234 20 50 10 180
64 229 95 26 16 50 30 52 30 7 0 49 36 111 93 58 54 150 184 184 262 13 28 26
57 30 66 10 19 47 161 55 209 18 103 13 417 -9 515 -53 244 -176 438 -363 571
-76 55 -206 116 -298 139 -61 16 -344 32 -357 20z m267 -305 c39 -12 88 -31
110 -43 170 -86 300 -273 332 -477 15 -101 9 -357 -11 -435 -62 -239 -210
-397 -436 -466 -98 -31 -311 -33 -403 -5 -183 56 -330 176 -401 328 -21 47
-46 117 -51 143 -16 81 -22 151 -23 243 -1 286 81 475 270 622 50 38 177 92
250 105 107 19 277 12 363 -15z"/>
</g>
</svg>
