<?xml version="1.0" standalone="no"?>
<!DOCTYPE svg PUBLIC "-//W3C//DTD SVG 20010904//EN"
 "http://www.w3.org/TR/2001/REC-SVG-20010904/DTD/svg10.dtd">
<svg version="1.0" xmlns="http://www.w3.org/2000/svg"
 width="520.000000pt" height="520.000000pt" viewBox="0 0 520.000000 520.000000"
 preserveAspectRatio="xMidYMid meet">
<metadata>
Created by potrace 1.11, written by Peter Selinger 2001-2013
</metadata>
<g transform="translate(0.000000,520.000000) scale(0.100000,-0.100000)"
fill="#000000" stroke="none">
<path d="M2428 5195 c-1 -1 -39 -5 -83 -9 -44 -3 -93 -8 -110 -11 -134 -23
-139 -24 -250 -50 -265 -63 -502 -162 -763 -320 -225 -136 -475 -362 -677
-612 -5 -7 -15 -18 -21 -25 -5 -7 -49 -71 -96 -143 -213 -323 -351 -688 -403
-1070 -29 -215 -28 -538 4 -740 19 -122 23 -142 52 -255 191 -744 689 -1356
1380 -1697 265 -130 596 -224 889 -251 150 -13 499 -7 600 12 14 2 59 10 100
16 41 6 93 16 115 22 22 5 47 11 55 13 58 11 274 80 345 110 203 86 322 150
488 262 482 326 839 797 1019 1348 28 86 72 257 82 320 3 17 10 59 16 95 36
224 34 618 -5 810 -2 14 -7 41 -10 60 -47 291 -205 682 -388 954 -105 158
-187 257 -332 401 -243 244 -477 405 -785 542 -170 75 -422 155 -560 177 -19
3 -44 7 -55 10 -11 2 -47 7 -80 11 -32 4 -68 9 -80 12 -23 5 -441 13 -447 8z"/>
</g>
</svg>
